<svg xmlns="http://www.w3.org/2000/svg" viewBox="0 0 32 32" fill="none">
  <circle cx="16" cy="16" r="16" fill="#c8ff88" />
  <path d="M15.97 9.40Q15.97 9.55 16.13 9.70Q16.30 9.85 16.30 10Q16.30 11.56 15.97 11.56Q15.76 11.56 15.65 11.36Q15.55 11.15 15.54 10.90Q15.54 10.64 15.49 10.38Q15.45 10.10 15.36 10Q13.84 9.52 12.87 10Q12.70 10.16 12.38 10.79Q12.07 11.41 11.92 11.56Q11.92 11.89 11.62 12.19Q11.47 12.79 11.39 13.42Q11.32 14.05 11.30 14.51Q11.29 14.96 11.29 15.94L11.29 17.80Q11.98 21.71 13.48 22.49Q13.71 22.60 13.94 22.62Q14.17 22.64 14.43 22.56Q14.68 22.48 14.87 22.40Q15.05 22.31 15.36 22.16Q15.50 21.85 15.50 21.07Q15.50 20.29 15.65 19.97Q16.02 19.97 16.25 20.14Q16.49 20.30 16.60 20.30L16.60 22.49Q16.48 22.81 16.21 23.02Q15.94 23.23 15.66 23.33Q15.38 23.44 14.93 23.47Q14.47 23.50 14.15 23.49Q13.84 23.48 13.29 23.40Q12.75 23.32 12.51 23.27Q12.28 23.23 11.77 23.13Q11.66 23.11 11.62 23.09Q11.44 22.91 11.03 22.59Q10.62 22.27 10.31 21.95Q10.02 21.64 9.74 21.22Q9.67 20.86 9.38 19.70Q9.10 18.55 8.95 17.66Q8.80 16.78 8.80 15.94Q8.89 15.47 9.05 14.46Q9.21 13.45 9.36 12.68Q9.52 11.92 9.74 11.26Q9.88 11.11 10.02 10.80Q10.15 10.49 10.34 10.31Q10.88 9.55 11.79 9Q12.70 8.46 13.78 8.46Q14.02 8.53 14.42 8.63Q14.81 8.74 15.02 8.80Q15.22 8.86 15.49 9.02Q15.76 9.17 15.97 9.40M21.19 8.92Q21.04 9.23 20.81 9.47Q20.59 9.70 20.59 9.85Q20.59 11.21 20.34 15.36Q20.09 19.51 20.26 22Q20.26 22.22 20.30 22.25Q20.33 22.29 20.59 22.30Q20.68 22.31 20.90 22.31Q21.11 22.30 21.19 22.30Q21.43 22.31 21.80 22.30L22.13 22.30L22.13 20.44L22.13 19.20Q22.27 19.06 22.43 19.06Q22.58 19.06 22.67 19.12L22.76 19.20Q23.03 19.48 23.11 19.90Q23.18 20.32 23.12 21.09Q23.06 21.86 23.06 22Q23.06 22.09 23.13 22.36Q23.20 22.63 23.20 22.86Q23.20 23.09 23.06 23.24Q22.12 23.39 20.34 23.39Q18.56 23.39 17.78 23.54Q17.66 23.44 17.48 23.33Q17.30 23.23 17.23 23.15Q17.15 23.06 17.15 22.91Q17.15 22.78 17.26 22.70Q17.36 22.63 17.47 22.62Q17.57 22.61 17.78 22.61Q17.99 22.40 18.04 22.16Q18.08 21.91 18.08 21.37Q18.40 19.81 18.40 16.09L18.40 15.76L18.40 12.98Q18.40 10.79 18.08 9.85Q18.08 9.71 18.01 9.64Q17.93 9.56 17.75 9.46Q17.57 9.35 17.45 9.25L17.45 8.62L17.78 8.62Q18.05 8.62 19.22 8.52Q20.38 8.42 20.95 8.50Q21.02 8.51 21.07 8.52Q21.11 8.53 21.14 8.54Q21.17 8.54 21.18 8.59Q21.19 8.63 21.19 8.66Q21.19 8.68 21.19 8.77Q21.19 8.86 21.19 8.92" fill="#1a1a1a" />
</svg>
